G04 start of page 5 for group 3 idx 7 *
G04 Title: (unknown), jumper *
G04 Creator: pcb 20140316 *
G04 CreationDate: Wed 27 Jan 2016 09:29:51 PM GMT UTC *
G04 For: veox *
G04 Format: Gerber/RS-274X *
G04 PCB-Dimensions (mil): 6700.00 3100.00 *
G04 PCB-Coordinate-Origin: lower left *
%MOIN*%
%FSLAX25Y25*%
%LNGROUP3*%
%ADD75C,0.0500*%
%ADD74C,0.0450*%
%ADD73C,0.0200*%
%ADD72C,0.0400*%
%ADD71C,0.0394*%
%ADD70C,0.0305*%
%ADD69C,0.0300*%
%ADD68C,0.0280*%
%ADD67C,0.1181*%
%ADD66C,0.0350*%
%ADD65C,0.1969*%
%ADD64C,0.0900*%
%ADD63C,0.1000*%
%ADD62C,0.1261*%
%ADD61C,0.0800*%
%ADD60C,0.0850*%
%ADD59C,0.0987*%
%ADD58C,0.0001*%
%ADD57C,0.0750*%
%ADD56C,0.0700*%
%ADD55C,0.0250*%
G54D55*X262500Y187500D02*X372500D01*
X240000Y210000D02*X262500Y187500D01*
X407500Y152500D02*X420000Y140000D01*
X395000Y152500D02*X407500D01*
X385000Y162500D02*X395000Y152500D01*
X385000Y175000D02*Y162500D01*
X372500Y187500D02*X385000Y175000D01*
X190000Y180000D02*X202500Y192500D01*
X250000D01*
X272500Y170000D01*
X295000D01*
X300000Y175000D01*
Y180000D01*
G54D56*D03*
X310000D03*
X320000D03*
X330000D03*
X340000D03*
X360000Y210000D03*
X350000D03*
X340000D03*
X330000D03*
X320000D03*
X310000D03*
G54D57*Y220000D03*
G54D58*G36*
X346500Y263500D02*Y256500D01*
X353500D01*
Y263500D01*
X346500D01*
G37*
G54D56*X340000Y260000D03*
X330000D03*
X320000D03*
X345000Y250000D03*
X335000D03*
X325000D03*
X315000D03*
G54D58*G36*
X426250Y173750D02*Y166250D01*
X433750D01*
Y173750D01*
X426250D01*
G37*
G54D57*X410000Y170000D03*
G54D58*G36*
X396500Y183500D02*Y176500D01*
X403500D01*
Y183500D01*
X396500D01*
G37*
G54D56*X410000Y180000D03*
X420000D03*
X430000D03*
X440000D03*
X450000D03*
X460000D03*
X470000D03*
Y210000D03*
X460000D03*
X450000D03*
X440000D03*
X430000D03*
X420000D03*
X410000D03*
X350000Y180000D03*
X360000D03*
G54D58*G36*
X356500Y163500D02*Y156500D01*
X363500D01*
Y163500D01*
X356500D01*
G37*
G36*
X336500Y143500D02*Y136500D01*
X343500D01*
Y143500D01*
X336500D01*
G37*
G54D56*X340000Y130000D03*
G54D58*G36*
X326500Y143500D02*Y136500D01*
X333500D01*
Y143500D01*
X326500D01*
G37*
G54D56*X330000Y130000D03*
X300000Y210000D03*
G54D58*G36*
X296500Y143500D02*Y136500D01*
X303500D01*
Y143500D01*
X296500D01*
G37*
G54D56*X300000Y130000D03*
Y160000D03*
X350000D03*
X340000D03*
X330000D03*
G54D58*G36*
X306500Y143500D02*Y136500D01*
X313500D01*
Y143500D01*
X306500D01*
G37*
G54D56*X310000Y130000D03*
G54D58*G36*
X316500Y143500D02*Y136500D01*
X323500D01*
Y143500D01*
X316500D01*
G37*
G54D56*X320000Y130000D03*
Y160000D03*
X310000D03*
X400000Y210000D03*
G54D58*G36*
X486500Y263500D02*Y256500D01*
X493500D01*
Y263500D01*
X486500D01*
G37*
G54D56*X485000Y250000D03*
X480000Y260000D03*
X475000Y250000D03*
X470000Y260000D03*
X465000Y250000D03*
X460000Y260000D03*
X455000Y250000D03*
X210000Y180000D03*
X220000D03*
X230000D03*
X240000D03*
X250000D03*
G54D58*G36*
X286500Y183500D02*Y176500D01*
X293500D01*
Y183500D01*
X286500D01*
G37*
G54D56*X250000Y210000D03*
G54D58*G36*
X246500Y163500D02*Y156500D01*
X253500D01*
Y163500D01*
X246500D01*
G37*
G54D56*X240000Y160000D03*
X230000D03*
X220000D03*
X210000D03*
X240000Y210000D03*
X290000D03*
Y160000D03*
X280000D03*
X270000D03*
G54D58*G36*
X286250Y223750D02*Y216250D01*
X293750D01*
Y223750D01*
X286250D01*
G37*
G36*
X176500Y183500D02*Y176500D01*
X183500D01*
Y183500D01*
X176500D01*
G37*
G54D56*X190000Y180000D03*
X200000D03*
Y160000D03*
X190000D03*
X180000D03*
G54D58*G36*
X226500Y143500D02*Y136500D01*
X233500D01*
Y143500D01*
X226500D01*
G37*
G54D56*X230000Y130000D03*
G54D58*G36*
X216500Y143500D02*Y136500D01*
X223500D01*
Y143500D01*
X216500D01*
G37*
G54D56*X220000Y130000D03*
G54D58*G36*
X206500Y143500D02*Y136500D01*
X213500D01*
Y143500D01*
X206500D01*
G37*
G36*
X186500D02*Y136500D01*
X193500D01*
Y143500D01*
X186500D01*
G37*
G36*
X196500D02*Y136500D01*
X203500D01*
Y143500D01*
X196500D01*
G37*
G54D56*X210000Y130000D03*
X190000D03*
X200000D03*
G54D57*Y40000D03*
G54D58*G36*
X246250Y43750D02*Y36250D01*
X253750D01*
Y43750D01*
X246250D01*
G37*
G54D59*X250000Y20000D03*
X230000D03*
G54D57*X270000Y40000D03*
G54D58*G36*
X265063Y24937D02*Y15063D01*
X274937D01*
Y24937D01*
X265063D01*
G37*
G36*
X195063D02*Y15063D01*
X204937D01*
Y24937D01*
X195063D01*
G37*
G54D56*X230000Y210000D03*
X220000D03*
X210000D03*
X200000D03*
X190000D03*
X180000D03*
G54D58*G36*
X176250Y223750D02*Y216250D01*
X183750D01*
Y223750D01*
X176250D01*
G37*
G54D60*X200000Y220000D03*
G54D58*G36*
X206500Y263500D02*Y256500D01*
X213500D01*
Y263500D01*
X206500D01*
G37*
G54D56*X205000Y250000D03*
X200000Y260000D03*
X195000Y250000D03*
X190000Y260000D03*
X185000Y250000D03*
X180000Y260000D03*
X175000Y250000D03*
G54D58*G36*
X386250Y43750D02*Y36250D01*
X393750D01*
Y43750D01*
X386250D01*
G37*
G54D57*X410000Y40000D03*
G54D58*G36*
X316250Y43750D02*Y36250D01*
X323750D01*
Y43750D01*
X316250D01*
G37*
G54D57*X340000Y40000D03*
G54D58*G36*
X456250Y43750D02*Y36250D01*
X463750D01*
Y43750D01*
X456250D01*
G37*
G36*
X335063Y24937D02*Y15063D01*
X344937D01*
Y24937D01*
X335063D01*
G37*
G36*
X405063D02*Y15063D01*
X414937D01*
Y24937D01*
X405063D01*
G37*
G54D59*X390000Y20000D03*
X370000D03*
X440000D03*
X320000D03*
X300000D03*
G54D57*X480000Y40000D03*
G54D58*G36*
X475063Y24937D02*Y15063D01*
X484937D01*
Y24937D01*
X475063D01*
G37*
G54D59*X460000Y20000D03*
G54D58*G36*
X426250Y63750D02*Y56250D01*
X433750D01*
Y63750D01*
X426250D01*
G37*
G54D57*X410000Y60000D03*
G54D61*Y80000D03*
X420000D03*
X430000D03*
X440000D03*
X450000D03*
G54D58*G36*
X526250Y63750D02*Y56250D01*
X533750D01*
Y63750D01*
X526250D01*
G37*
G54D57*X570000Y60000D03*
G54D58*G36*
X486500Y63500D02*Y56500D01*
X493500D01*
Y63500D01*
X486500D01*
G37*
G54D56*X520000Y60000D03*
G54D58*G36*
X536250Y173750D02*Y166250D01*
X543750D01*
Y173750D01*
X536250D01*
G37*
G54D57*X520000Y170000D03*
G54D56*Y180000D03*
X530000D03*
X540000D03*
X550000D03*
X560000D03*
X570000D03*
X580000D03*
G54D58*G36*
X506500Y183500D02*Y176500D01*
X513500D01*
Y183500D01*
X506500D01*
G37*
G54D56*X580000Y210000D03*
X570000D03*
X560000D03*
X550000D03*
X540000D03*
X530000D03*
X520000D03*
X510000D03*
G54D58*G36*
X626500Y263500D02*Y256500D01*
X633500D01*
Y263500D01*
X626500D01*
G37*
G54D56*X620000Y260000D03*
X610000D03*
X600000D03*
X625000Y250000D03*
X615000D03*
X605000D03*
X595000D03*
G54D58*G36*
X546000Y144000D02*Y136000D01*
X554000D01*
Y144000D01*
X546000D01*
G37*
G54D61*X540000Y140000D03*
X530000D03*
X520000D03*
X510000D03*
X500000D03*
X490000D03*
X480000D03*
X470000D03*
X460000D03*
X450000D03*
X440000D03*
X430000D03*
X420000D03*
X410000D03*
X460000Y80000D03*
X470000D03*
X480000D03*
X490000D03*
X500000D03*
X510000D03*
X520000D03*
X530000D03*
X540000D03*
X550000D03*
G54D58*G36*
X176250Y43750D02*Y36250D01*
X183750D01*
Y43750D01*
X176250D01*
G37*
G36*
X83695Y26305D02*Y13695D01*
X96305D01*
Y26305D01*
X83695D01*
G37*
G54D62*X110000Y20000D03*
G54D61*Y80000D03*
G54D59*X160000Y20000D03*
G54D56*X170000Y160000D03*
X160000D03*
G54D59*X180000Y20000D03*
G54D58*G36*
X86000Y84000D02*Y76000D01*
X94000D01*
Y84000D01*
X86000D01*
G37*
G36*
X5000Y75000D02*Y65000D01*
X15000D01*
Y75000D01*
X5000D01*
G37*
G54D63*X20000Y80000D03*
X10000Y90000D03*
G54D58*G36*
X66250Y133750D02*Y126250D01*
X73750D01*
Y133750D01*
X66250D01*
G37*
G54D57*X70000Y150000D03*
G54D58*G36*
X86000Y134000D02*Y126000D01*
X94000D01*
Y134000D01*
X86000D01*
G37*
G54D61*X110000Y130000D03*
G54D57*X80000Y170000D03*
G54D58*G36*
X96250Y173750D02*Y166250D01*
X103750D01*
Y173750D01*
X96250D01*
G37*
G36*
X66500Y183500D02*Y176500D01*
X73500D01*
Y183500D01*
X66500D01*
G37*
G54D56*X80000Y180000D03*
X90000D03*
X100000D03*
X110000D03*
X120000D03*
X130000D03*
X140000D03*
Y210000D03*
X130000D03*
X120000D03*
X110000D03*
X100000D03*
X90000D03*
X80000D03*
X70000D03*
G54D58*G36*
X66500Y263500D02*Y256500D01*
X73500D01*
Y263500D01*
X66500D01*
G37*
G54D56*X65000Y250000D03*
X60000Y260000D03*
X55000Y250000D03*
X50000Y260000D03*
X45000Y250000D03*
X40000Y260000D03*
X35000Y250000D03*
G54D64*X367500Y80000D03*
X360000Y195000D03*
X400000Y160000D03*
X340000Y195000D03*
X382500Y187500D03*
X367500Y140000D03*
X245000Y95000D03*
X262500Y105000D03*
X165000Y112500D03*
X180000Y195000D03*
X260000Y220000D03*
X265000Y195000D03*
X410000Y225000D03*
X440000D03*
X490000Y152500D03*
X577500Y110000D03*
X500000D03*
G54D65*X650000Y20000D03*
G54D64*X490000Y182500D03*
G54D65*X650000Y200000D03*
G54D64*X57500Y130000D03*
G54D65*X20000Y200000D03*
Y20000D03*
G54D64*X45000Y237500D03*
X75000D03*
G54D66*G54D67*G54D66*G54D67*G54D66*G54D67*G54D66*G54D68*G54D69*G54D68*G54D70*G54D68*G54D69*G54D68*G54D70*G54D68*G54D69*G54D68*G54D69*G54D71*G54D69*G54D71*G54D68*G54D69*G54D68*G54D70*G54D68*G54D70*G54D68*G54D69*G54D71*G54D69*G54D71*G54D69*G54D72*G54D69*G54D73*G54D69*G54D68*G54D70*G54D68*G54D72*G54D69*G54D74*G54D69*G54D71*G54D68*G54D71*G54D69*G54D75*G54D69*G54D68*G54D70*G54D68*G54D70*M02*
