G04 start of page 8 for group -4063 idx -4063 *
G04 Title: (unknown), componentmask *
G04 Creator: pcb 20140316 *
G04 CreationDate: Wed 27 Jan 2016 09:29:51 PM GMT UTC *
G04 For: veox *
G04 Format: Gerber/RS-274X *
G04 PCB-Dimensions (mil): 6700.00 3100.00 *
G04 PCB-Coordinate-Origin: lower left *
%MOIN*%
%FSLAX25Y25*%
%LNTOPMASK*%
%ADD96C,0.1060*%
%ADD95C,0.0860*%
%ADD94C,0.1321*%
%ADD93C,0.0880*%
%ADD92C,0.0910*%
%ADD91C,0.1047*%
%ADD90C,0.1280*%
%ADD89C,0.0700*%
%ADD88C,0.0001*%
%ADD87C,0.0810*%
%ADD86C,0.0760*%
G54D86*X300000Y180000D03*
X310000D03*
X320000D03*
X330000D03*
X340000D03*
X360000Y210000D03*
X350000D03*
X340000D03*
X330000D03*
X320000D03*
X310000D03*
G54D87*Y220000D03*
G54D88*G36*
X346500Y263500D02*Y256500D01*
X353500D01*
Y263500D01*
X346500D01*
G37*
G54D89*X340000Y260000D03*
X330000D03*
X320000D03*
G54D90*X352500Y302500D03*
X312500Y267500D03*
G54D89*X345000Y250000D03*
X335000D03*
X325000D03*
X315000D03*
G54D88*G36*
X425950Y174050D02*Y165950D01*
X434050D01*
Y174050D01*
X425950D01*
G37*
G54D87*X410000Y170000D03*
G54D88*G36*
X396200Y183800D02*Y176200D01*
X403800D01*
Y183800D01*
X396200D01*
G37*
G54D86*X410000Y180000D03*
X420000D03*
X430000D03*
X440000D03*
X450000D03*
X460000D03*
X470000D03*
Y210000D03*
X460000D03*
X450000D03*
X440000D03*
X430000D03*
X420000D03*
X410000D03*
X350000Y180000D03*
X360000D03*
G54D88*G36*
X356200Y163800D02*Y156200D01*
X363800D01*
Y163800D01*
X356200D01*
G37*
G36*
X336200Y143800D02*Y136200D01*
X343800D01*
Y143800D01*
X336200D01*
G37*
G54D86*X340000Y130000D03*
G54D88*G36*
X326200Y143800D02*Y136200D01*
X333800D01*
Y143800D01*
X326200D01*
G37*
G54D86*X330000Y130000D03*
X300000Y210000D03*
G54D88*G36*
X296200Y143800D02*Y136200D01*
X303800D01*
Y143800D01*
X296200D01*
G37*
G54D86*X300000Y130000D03*
Y160000D03*
X350000D03*
X340000D03*
X330000D03*
G54D88*G36*
X306200Y143800D02*Y136200D01*
X313800D01*
Y143800D01*
X306200D01*
G37*
G54D86*X310000Y130000D03*
G54D88*G36*
X316200Y143800D02*Y136200D01*
X323800D01*
Y143800D01*
X316200D01*
G37*
G54D86*X320000Y130000D03*
Y160000D03*
X310000D03*
X400000Y210000D03*
G54D88*G36*
X486500Y263500D02*Y256500D01*
X493500D01*
Y263500D01*
X486500D01*
G37*
G54D89*X485000Y250000D03*
X480000Y260000D03*
X475000Y250000D03*
X470000Y260000D03*
X465000Y250000D03*
X460000Y260000D03*
X455000Y250000D03*
G54D90*X492500Y302500D03*
X452500Y267500D03*
G54D86*X210000Y180000D03*
X220000D03*
X230000D03*
X240000D03*
X250000D03*
G54D88*G36*
X286200Y183800D02*Y176200D01*
X293800D01*
Y183800D01*
X286200D01*
G37*
G54D86*X250000Y210000D03*
G54D88*G36*
X246200Y163800D02*Y156200D01*
X253800D01*
Y163800D01*
X246200D01*
G37*
G54D86*X240000Y160000D03*
X230000D03*
X220000D03*
X210000D03*
X240000Y210000D03*
X290000D03*
Y160000D03*
X280000D03*
X270000D03*
G54D88*G36*
X285950Y224050D02*Y215950D01*
X294050D01*
Y224050D01*
X285950D01*
G37*
G36*
X176200Y183800D02*Y176200D01*
X183800D01*
Y183800D01*
X176200D01*
G37*
G54D86*X190000Y180000D03*
X200000D03*
Y160000D03*
X190000D03*
X180000D03*
G54D88*G36*
X226200Y143800D02*Y136200D01*
X233800D01*
Y143800D01*
X226200D01*
G37*
G54D86*X230000Y130000D03*
G54D88*G36*
X216200Y143800D02*Y136200D01*
X223800D01*
Y143800D01*
X216200D01*
G37*
G54D86*X220000Y130000D03*
G54D88*G36*
X206200Y143800D02*Y136200D01*
X213800D01*
Y143800D01*
X206200D01*
G37*
G36*
X186200D02*Y136200D01*
X193800D01*
Y143800D01*
X186200D01*
G37*
G36*
X196200D02*Y136200D01*
X203800D01*
Y143800D01*
X196200D01*
G37*
G54D86*X210000Y130000D03*
X190000D03*
X200000D03*
G54D87*Y40000D03*
G54D88*G36*
X245950Y44050D02*Y35950D01*
X254050D01*
Y44050D01*
X245950D01*
G37*
G54D91*X250000Y20000D03*
X230000D03*
G54D87*X270000Y40000D03*
G54D88*G36*
X264763Y25237D02*Y14763D01*
X275237D01*
Y25237D01*
X264763D01*
G37*
G36*
X194763D02*Y14763D01*
X205237D01*
Y25237D01*
X194763D01*
G37*
G54D86*X230000Y210000D03*
X220000D03*
X210000D03*
X200000D03*
X190000D03*
X180000D03*
G54D88*G36*
X175950Y224050D02*Y215950D01*
X184050D01*
Y224050D01*
X175950D01*
G37*
G54D92*X200000Y220000D03*
G54D88*G36*
X206500Y263500D02*Y256500D01*
X213500D01*
Y263500D01*
X206500D01*
G37*
G54D89*X205000Y250000D03*
X200000Y260000D03*
X195000Y250000D03*
X190000Y260000D03*
G54D90*X212500Y302500D03*
G54D89*X185000Y250000D03*
X180000Y260000D03*
G54D90*X172500Y267500D03*
G54D89*X175000Y250000D03*
G54D88*G36*
X385950Y44050D02*Y35950D01*
X394050D01*
Y44050D01*
X385950D01*
G37*
G54D87*X410000Y40000D03*
G54D88*G36*
X315950Y44050D02*Y35950D01*
X324050D01*
Y44050D01*
X315950D01*
G37*
G54D87*X340000Y40000D03*
G54D88*G36*
X455950Y44050D02*Y35950D01*
X464050D01*
Y44050D01*
X455950D01*
G37*
G36*
X334763Y25237D02*Y14763D01*
X345237D01*
Y25237D01*
X334763D01*
G37*
G36*
X404763D02*Y14763D01*
X415237D01*
Y25237D01*
X404763D01*
G37*
G54D91*X390000Y20000D03*
X370000D03*
X440000D03*
X320000D03*
X300000D03*
G54D87*X480000Y40000D03*
G54D88*G36*
X474763Y25237D02*Y14763D01*
X485237D01*
Y25237D01*
X474763D01*
G37*
G54D91*X460000Y20000D03*
G54D88*G36*
X425950Y64050D02*Y55950D01*
X434050D01*
Y64050D01*
X425950D01*
G37*
G54D87*X410000Y60000D03*
G54D93*Y80000D03*
X420000D03*
X430000D03*
X440000D03*
X450000D03*
G54D88*G36*
X525950Y64050D02*Y55950D01*
X534050D01*
Y64050D01*
X525950D01*
G37*
G54D87*X570000Y60000D03*
G54D88*G36*
X486200Y63800D02*Y56200D01*
X493800D01*
Y63800D01*
X486200D01*
G37*
G54D86*X520000Y60000D03*
G54D88*G36*
X535950Y174050D02*Y165950D01*
X544050D01*
Y174050D01*
X535950D01*
G37*
G54D87*X520000Y170000D03*
G54D86*Y180000D03*
X530000D03*
X540000D03*
X550000D03*
X560000D03*
X570000D03*
X580000D03*
G54D88*G36*
X506200Y183800D02*Y176200D01*
X513800D01*
Y183800D01*
X506200D01*
G37*
G54D86*X580000Y210000D03*
X570000D03*
X560000D03*
X550000D03*
X540000D03*
X530000D03*
X520000D03*
X510000D03*
G54D88*G36*
X626500Y263500D02*Y256500D01*
X633500D01*
Y263500D01*
X626500D01*
G37*
G54D89*X620000Y260000D03*
X610000D03*
X600000D03*
G54D90*X632500Y302500D03*
X592500Y267500D03*
G54D89*X625000Y250000D03*
X615000D03*
X605000D03*
X595000D03*
G54D88*G36*
X545600Y144400D02*Y135600D01*
X554400D01*
Y144400D01*
X545600D01*
G37*
G54D93*X540000Y140000D03*
X530000D03*
X520000D03*
X510000D03*
X500000D03*
X490000D03*
X480000D03*
X470000D03*
X460000D03*
X450000D03*
X440000D03*
X430000D03*
X420000D03*
X410000D03*
X460000Y80000D03*
X470000D03*
X480000D03*
X490000D03*
X500000D03*
X510000D03*
X520000D03*
X530000D03*
X540000D03*
X550000D03*
G54D88*G36*
X175950Y44050D02*Y35950D01*
X184050D01*
Y44050D01*
X175950D01*
G37*
G36*
X83395Y26605D02*Y13395D01*
X96605D01*
Y26605D01*
X83395D01*
G37*
G54D94*X110000Y20000D03*
G54D95*Y80000D03*
G54D91*X160000Y20000D03*
G54D86*X170000Y160000D03*
X160000D03*
G54D91*X180000Y20000D03*
G54D88*G36*
X85700Y84300D02*Y75700D01*
X94300D01*
Y84300D01*
X85700D01*
G37*
G36*
X4700Y75300D02*Y64700D01*
X15300D01*
Y75300D01*
X4700D01*
G37*
G54D96*X20000Y80000D03*
X10000Y90000D03*
G54D88*G36*
X65950Y134050D02*Y125950D01*
X74050D01*
Y134050D01*
X65950D01*
G37*
G54D87*X70000Y150000D03*
G54D88*G36*
X85700Y134300D02*Y125700D01*
X94300D01*
Y134300D01*
X85700D01*
G37*
G54D95*X110000Y130000D03*
G54D87*X80000Y170000D03*
G54D88*G36*
X95950Y174050D02*Y165950D01*
X104050D01*
Y174050D01*
X95950D01*
G37*
G36*
X66200Y183800D02*Y176200D01*
X73800D01*
Y183800D01*
X66200D01*
G37*
G54D86*X80000Y180000D03*
X90000D03*
X100000D03*
X110000D03*
X120000D03*
X130000D03*
X140000D03*
Y210000D03*
X130000D03*
X120000D03*
X110000D03*
X100000D03*
X90000D03*
X80000D03*
X70000D03*
G54D88*G36*
X66500Y263500D02*Y256500D01*
X73500D01*
Y263500D01*
X66500D01*
G37*
G54D89*X65000Y250000D03*
X60000Y260000D03*
X55000Y250000D03*
X50000Y260000D03*
X45000Y250000D03*
X40000Y260000D03*
G54D90*X32500Y267500D03*
G54D89*X35000Y250000D03*
G54D90*X72500Y302500D03*
M02*
