G04 start of page 12 for group -4079 idx -4079 *
G04 Title: (unknown), topsilk *
G04 Creator: pcb 20140316 *
G04 CreationDate: Wed 27 Jan 2016 09:28:51 PM GMT UTC *
G04 For: veox *
G04 Format: Gerber/RS-274X *
G04 PCB-Dimensions (mil): 1800.00 3000.00 *
G04 PCB-Coordinate-Origin: lower left *
%MOIN*%
%FSLAX25Y25*%
%LNTOPSILK*%
%ADD53C,0.0300*%
%ADD52C,0.0200*%
%ADD51C,0.0100*%
G54D51*X132000Y160000D02*X136000D01*
X134000Y162000D02*Y158000D01*
X84000Y160000D02*X88000D01*
X130000D02*G75*G03X130000Y160000I-20000J0D01*G01*
X100000Y130000D02*X105000D01*
X115000D02*X120000D01*
X105000Y131600D02*X115000D01*
Y128400D01*
X105000D01*
Y131600D01*
X75000Y35000D02*X145000D01*
X75000Y115000D02*X105000D01*
X115000D02*X145000D01*
X75000Y35000D02*Y115000D01*
X145000D02*Y35000D01*
X105000Y115000D02*G75*G03X115000Y115000I5000J0D01*G01*
X150000Y90000D02*Y80000D01*
Y60000D02*Y50000D01*
X153300Y80000D02*Y60000D01*
X146700D02*X153300D01*
X146700Y80000D02*Y60000D01*
Y80000D02*X153300D01*
X42500Y297000D02*X142500D01*
X42500Y306000D02*Y235000D01*
X142500D01*
Y306000D02*Y235000D01*
X42500Y306000D02*X142500D01*
X132000Y200000D02*X136000D01*
X134000Y202000D02*Y198000D01*
X84000Y200000D02*X88000D01*
X130000D02*G75*G03X130000Y200000I-20000J0D01*G01*
X70000Y185000D02*Y180000D01*
Y200000D02*Y195000D01*
X68400D02*Y185000D01*
Y195000D02*X71600D01*
Y185000D01*
X68400D02*X71600D01*
X25000Y215000D02*Y175000D01*
X65000D01*
Y215000D01*
X25000D02*X40000D01*
X50000D02*X65000D01*
X40000D02*G75*G03X50000Y215000I5000J0D01*G01*
G54D52*X15000Y110000D02*Y80000D01*
X25000Y110000D02*Y80000D01*
G54D51*X15000Y105000D02*X25000D01*
G54D52*Y110000D02*G75*G03X15000Y110000I-5000J0D01*G01*
Y80000D02*G75*G03X25000Y80000I5000J0D01*G01*
G54D51*X20000Y170000D02*Y160000D01*
Y140000D02*Y130000D01*
X23300Y160000D02*Y140000D01*
X16700D02*X23300D01*
X16700Y160000D02*Y140000D01*
Y160000D02*X23300D01*
X20000Y220000D02*Y210000D01*
Y190000D02*Y180000D01*
X23300Y210000D02*Y190000D01*
X16700D02*X23300D01*
X16700Y210000D02*Y190000D01*
Y210000D02*X23300D01*
X25000Y165000D02*Y125000D01*
X65000D01*
Y165000D01*
X25000D02*X40000D01*
X50000D02*X65000D01*
X40000D02*G75*G03X50000Y165000I5000J0D01*G01*
X70000Y135000D02*Y130000D01*
Y150000D02*Y145000D01*
X68400D02*Y135000D01*
Y145000D02*X71600D01*
Y135000D01*
X68400D02*X71600D01*
G54D52*X182000Y200000D02*Y160000D01*
X164000D02*X182000D01*
X164000Y200000D02*Y160000D01*
Y200000D02*X182000D01*
Y160000D01*
X176000D02*X182000D01*
X176000Y200000D02*Y160000D01*
Y200000D02*X182000D01*
G54D51*X176000Y187000D02*X182000D01*
X176000Y173000D02*X182000D01*
G54D53*X160000Y180000D02*X164000D01*
G54D51*X50000Y38000D02*Y34000D01*
X48000Y36000D02*X52000D01*
X50000Y86000D02*Y82000D01*
Y40000D02*G75*G03X50000Y40000I0J20000D01*G01*
X108200Y121600D02*X109500D01*
X107500Y122300D02*X108200Y121600D01*
X107500Y124900D02*Y122300D01*
Y124900D02*X108200Y125600D01*
X109500D01*
X110700Y123100D02*X112700Y125600D01*
X110700Y123100D02*X113200D01*
X112700Y125600D02*Y121600D01*
X80000Y109000D02*Y105500D01*
X80500Y105000D01*
X81500D01*
X82000Y105500D01*
Y109000D02*Y105500D01*
X83200Y108200D02*X84000Y109000D01*
Y105000D01*
X83200D02*X84700D01*
X78400Y187000D02*Y185700D01*
X77700Y185000D02*X78400Y185700D01*
X75100Y185000D02*X77700D01*
X75100D02*X74400Y185700D01*
Y187000D02*Y185700D01*
X75200Y188200D02*X74400Y189000D01*
X78400D01*
Y189700D02*Y188200D01*
X75200Y190900D02*X74400Y191700D01*
X78400D01*
Y192400D02*Y190900D01*
X68000Y215000D02*X71500D01*
X68000D02*X67500Y214500D01*
Y213500D01*
X68000Y213000D01*
X71500D01*
X70700Y211800D02*X71500Y211000D01*
X67500D02*X71500D01*
X67500Y211800D02*Y210300D01*
X70700Y209100D02*X71500Y208300D01*
X67500D02*X71500D01*
X67500Y209100D02*Y207600D01*
X68000Y165000D02*X71500D01*
X68000D02*X67500Y164500D01*
Y163500D01*
X68000Y163000D01*
X71500D01*
X70700Y161800D02*X71500Y161000D01*
X67500D02*X71500D01*
X67500Y161800D02*Y160300D01*
X71000Y159100D02*X71500Y158600D01*
Y157100D01*
X71000Y156600D01*
X70000D02*X71000D01*
X67500Y159100D02*X70000Y156600D01*
X67500Y159100D02*Y156600D01*
X78400Y137000D02*Y135700D01*
X77700Y135000D02*X78400Y135700D01*
X75100Y135000D02*X77700D01*
X75100D02*X74400Y135700D01*
Y137000D02*Y135700D01*
X75200Y138200D02*X74400Y139000D01*
X78400D01*
Y139700D02*Y138200D01*
X74900Y140900D02*X74400Y141400D01*
Y142900D02*Y141400D01*
Y142900D02*X74900Y143400D01*
X75900D01*
X78400Y140900D02*X75900Y143400D01*
X78400D02*Y140900D01*
X10000Y114300D02*Y113000D01*
X10700Y115000D02*X10000Y114300D01*
X10700Y115000D02*X13300D01*
X14000Y114300D01*
Y113000D01*
X10500Y111800D02*X13500D01*
X14000Y111300D01*
Y110300D01*
X13500Y109800D01*
X10500D02*X13500D01*
X10000Y110300D02*X10500Y109800D01*
X10000Y111300D02*Y110300D01*
X10500Y111800D02*X10000Y111300D01*
Y108600D02*X14000D01*
X10000Y106100D01*
X14000D01*
X10000Y104900D02*X14000D01*
X10000Y102400D01*
X14000D01*
X10000Y101200D02*Y99200D01*
X14000Y96000D02*X13500Y95500D01*
X14000Y97500D02*Y96000D01*
X13500Y98000D02*X14000Y97500D01*
X12500Y98000D02*X13500D01*
X12500D02*X12000Y97500D01*
Y96000D01*
X11500Y95500D01*
X10500D02*X11500D01*
X10000Y96000D02*X10500Y95500D01*
X10000Y97500D02*Y96000D01*
X10500Y98000D02*X10000Y97500D01*
X14000Y94300D02*Y92300D01*
X10000Y93300D02*X14000D01*
X12200Y91100D02*Y89600D01*
X10000Y91100D02*Y89100D01*
Y91100D02*X14000D01*
Y89100D01*
X10000Y87400D02*X14000D01*
Y87900D02*Y85900D01*
X13500Y85400D01*
X12500D02*X13500D01*
X12000Y85900D02*X12500Y85400D01*
X12000Y87400D02*Y85900D01*
X10000Y83700D02*X14000D01*
Y84200D02*Y82200D01*
X13500Y81700D01*
X12500D02*X13500D01*
X12000Y82200D02*X12500Y81700D01*
X12000Y83700D02*Y82200D01*
X12200Y80500D02*Y79000D01*
X10000Y80500D02*Y78500D01*
Y80500D02*X14000D01*
Y78500D01*
Y77300D02*Y75300D01*
X13500Y74800D01*
X12500D02*X13500D01*
X12000Y75300D02*X12500Y74800D01*
X12000Y76800D02*Y75300D01*
X10000Y76800D02*X14000D01*
X12000Y76000D02*X10000Y74800D01*
X35000Y42000D02*Y40700D01*
X34300Y40000D02*X35000Y40700D01*
X31700Y40000D02*X34300D01*
X31700D02*X31000Y40700D01*
Y42000D02*Y40700D01*
X31800Y43200D02*X31000Y44000D01*
X35000D01*
Y44700D02*Y43200D01*
X14800Y155000D02*Y153000D01*
X14300Y152500D01*
X13300D02*X14300D01*
X12800Y153000D02*X13300Y152500D01*
X12800Y154500D02*Y153000D01*
X10800Y154500D02*X14800D01*
X12800Y153700D02*X10800Y152500D01*
X14000Y151300D02*X14800Y150500D01*
X10800D02*X14800D01*
X10800Y151300D02*Y149800D01*
X14300Y148600D02*X14800Y148100D01*
Y146600D01*
X14300Y146100D01*
X13300D02*X14300D01*
X10800Y148600D02*X13300Y146100D01*
X10800Y148600D02*Y146100D01*
X14800Y205000D02*Y203000D01*
X14300Y202500D01*
X13300D02*X14300D01*
X12800Y203000D02*X13300Y202500D01*
X12800Y204500D02*Y203000D01*
X10800Y204500D02*X14800D01*
X12800Y203700D02*X10800Y202500D01*
X14000Y201300D02*X14800Y200500D01*
X10800D02*X14800D01*
X10800Y201300D02*Y199800D01*
X14000Y198600D02*X14800Y197800D01*
X10800D02*X14800D01*
X10800Y198600D02*Y197100D01*
X135000Y251800D02*Y250500D01*
X135700Y252500D02*X135000Y251800D01*
X135700Y252500D02*X138300D01*
X139000Y251800D01*
Y250500D01*
X135500Y249300D02*X138500D01*
X139000Y248800D01*
Y247800D01*
X138500Y247300D01*
X135500D02*X138500D01*
X135000Y247800D02*X135500Y247300D01*
X135000Y248800D02*Y247800D01*
X135500Y249300D02*X135000Y248800D01*
Y246100D02*X139000D01*
X135000Y243600D01*
X139000D01*
X135000Y242400D02*X139000D01*
X135000Y239900D01*
X139000D01*
X135500Y238700D02*X135000Y238200D01*
X135500Y238700D02*X138500D01*
X139000Y238200D01*
Y237200D01*
X138500Y236700D01*
X135500D02*X138500D01*
X135000Y237200D02*X135500Y236700D01*
X135000Y238200D02*Y237200D01*
X136000Y238700D02*X138000Y236700D01*
X128000Y185000D02*X129300D01*
X130000Y184300D02*X129300Y185000D01*
X130000Y184300D02*Y181700D01*
X129300Y181000D01*
X128000D02*X129300D01*
X126800Y181500D02*X126300Y181000D01*
X124800D02*X126300D01*
X124800D02*X124300Y181500D01*
Y182500D02*Y181500D01*
X126800Y185000D02*X124300Y182500D01*
Y185000D02*X126800D01*
X128000Y145000D02*X129300D01*
X130000Y144300D02*X129300Y145000D01*
X130000Y144300D02*Y141700D01*
X129300Y141000D01*
X128000D02*X129300D01*
X126800Y141500D02*X126300Y141000D01*
X125300D02*X126300D01*
X125300D02*X124800Y141500D01*
X125300Y145000D02*X124800Y144500D01*
X125300Y145000D02*X126300D01*
X126800Y144500D02*X126300Y145000D01*
X125300Y142800D02*X126300D01*
X124800Y142300D02*Y141500D01*
Y144500D02*Y143300D01*
X125300Y142800D01*
X124800Y142300D02*X125300Y142800D01*
X159800Y72500D02*Y70500D01*
X159300Y70000D01*
X158300D02*X159300D01*
X157800Y70500D02*X158300Y70000D01*
X157800Y72000D02*Y70500D01*
X155800Y72000D02*X159800D01*
X157800Y71200D02*X155800Y70000D01*
X159000Y68800D02*X159800Y68000D01*
X155800D02*X159800D01*
X155800Y68800D02*Y67300D01*
M02*
