G04 start of page 2 for group 0 idx 0 *
G04 Title: driver, top *
G04 Creator: pcb 20140316 *
G04 CreationDate: Mon 01 Feb 2016 10:15:18 PM GMT UTC *
G04 For: veox *
G04 Format: Gerber/RS-274X *
G04 PCB-Dimensions (mil): 1800.00 3000.00 *
G04 PCB-Coordinate-Origin: lower left *
%MOIN*%
%FSLAX25Y25*%
%LNTOP*%
%ADD17C,0.0394*%
%ADD16C,0.0630*%
%ADD15C,0.0315*%
%ADD14C,0.1181*%
%ADD13C,0.1969*%
%ADD12C,0.0750*%
%ADD11C,0.0001*%
G54D11*G36*
X76250Y113750D02*Y106250D01*
X83750D01*
Y113750D01*
X76250D01*
G37*
G54D12*X80000Y100000D03*
Y90000D03*
Y80000D03*
Y70000D03*
Y60000D03*
Y50000D03*
Y40000D03*
G54D11*G36*
X66250Y183750D02*Y176250D01*
X73750D01*
Y183750D01*
X66250D01*
G37*
G54D12*X60000Y180000D03*
Y190000D03*
X30000Y180000D03*
G54D11*G36*
X26250Y163750D02*Y156250D01*
X33750D01*
Y163750D01*
X26250D01*
G37*
G36*
X16250Y173750D02*Y166250D01*
X23750D01*
Y173750D01*
X16250D01*
G37*
G54D12*X20000Y180000D03*
X60000Y130000D03*
Y140000D03*
Y150000D03*
Y160000D03*
G54D11*G36*
X66250Y133750D02*Y126250D01*
X73750D01*
Y133750D01*
X66250D01*
G37*
G54D12*X70000Y150000D03*
X30000D03*
Y140000D03*
Y130000D03*
X20000D03*
G54D11*G36*
X16250Y223750D02*Y216250D01*
X23750D01*
Y223750D01*
X16250D01*
G37*
G36*
Y113750D02*Y106250D01*
X23750D01*
Y113750D01*
X16250D01*
G37*
G54D12*X20000Y100000D03*
Y90000D03*
Y80000D03*
G54D11*G36*
X46250Y53750D02*Y46250D01*
X53750D01*
Y53750D01*
X46250D01*
G37*
G54D12*X50000Y70000D03*
G54D11*G36*
X116250Y203750D02*Y196250D01*
X123750D01*
Y203750D01*
X116250D01*
G37*
G54D12*X100000Y200000D03*
G54D11*G36*
X116250Y163750D02*Y156250D01*
X123750D01*
Y163750D01*
X116250D01*
G37*
G54D12*X100000Y160000D03*
G54D11*G36*
X96250Y133750D02*Y126250D01*
X103750D01*
Y133750D01*
X96250D01*
G37*
G54D12*X120000Y130000D03*
X95000Y240000D03*
X90000Y250000D03*
X85000Y240000D03*
X80000Y250000D03*
G54D11*G36*
X106250Y253750D02*Y246250D01*
X113750D01*
Y253750D01*
X106250D01*
G37*
G54D12*X105000Y240000D03*
X100000Y250000D03*
X140000Y40000D03*
Y50000D03*
Y60000D03*
Y70000D03*
X150000Y50000D03*
X140000Y80000D03*
Y90000D03*
Y100000D03*
Y110000D03*
G54D11*G36*
X146250Y93750D02*Y86250D01*
X153750D01*
Y93750D01*
X146250D01*
G37*
G36*
X166250Y193750D02*Y186250D01*
X173750D01*
Y193750D01*
X166250D01*
G37*
G54D12*X160000Y180000D03*
X170000Y170000D03*
X75000Y240000D03*
X70000Y200000D03*
G54D11*G36*
X26250Y213750D02*Y206250D01*
X33750D01*
Y213750D01*
X26250D01*
G37*
G54D12*X30000Y200000D03*
Y190000D03*
X60000Y200000D03*
Y210000D03*
G54D13*X160000Y260000D03*
X20000D03*
Y20000D03*
X160000D03*
G54D14*G54D15*G54D16*G54D15*G54D17*G54D15*M02*
