M48
INCH
T37C0.118
T36C0.039
T35C0.031
%
T35
X002000Y022000
X002000Y018000
X002000Y017000
X002000Y013000
X002000Y011000
X002000Y010000
X002000Y009000
X002000Y008000
X003000Y021000
X003000Y020000
X003000Y019000
X003000Y018000
X003000Y016000
X003000Y015000
X003000Y014000
X003000Y013000
X005000Y007000
X005000Y005000
X006000Y021000
X006000Y020000
X006000Y019000
X006000Y018000
X006000Y016000
X006000Y015000
X006000Y014000
X006000Y013000
X007000Y020000
X007000Y018000
X007000Y015000
X007000Y013000
X007500Y024000
X008000Y025000
X008000Y011000
X008000Y010000
X008000Y009000
X008000Y008000
X008000Y007000
X008000Y006000
X008000Y005000
X008000Y004000
X008500Y024000
X009000Y025000
X009500Y024000
X010000Y025000
X010000Y020000
X010000Y016000
X010000Y013000
X010500Y024000
X011000Y025000
X012000Y020000
X012000Y016000
X012000Y013000
X014000Y011000
X014000Y010000
X014000Y009000
X014000Y008000
X014000Y007000
X014000Y006000
X014000Y005000
X014000Y004000
X015000Y009000
X015000Y005000
T36
X016000Y018000
X017000Y019000
X017000Y017000
T37
X002000Y026000
X002000Y002000
X016000Y026000
X016000Y002000
M30
